<svg viewBox="0 0 800 500" preserveAspectRatio="none" xmlns="http://www.w3.org/2000/svg" xmlns:xlink="http://www.w3.org/1999/xlink" width="100%" id="blobSvg">
  <g transform="translate(152.5933609008789, -7.0792388916015625)">
    <defs>
      <linearGradient id="gradient" x1="0%" y1="0%" x2="0%" y2="100%">
        <stop offset="0%" style="stop-color: rgb(255, 95, 109);"></stop>
        <stop offset="100%" style="stop-color: rgb(255, 195, 113);"></stop>
      </linearGradient>
    </defs>
    <path class="blob" d="M455.5,293Q428,336,407,378.5Q386,421,329.5,385.5Q273,350,235.5,413Q198,476,152.5,452.5Q107,429,120.5,367.5Q134,306,96.5,278Q59,250,87.5,218Q116,186,136,159.5Q156,133,187.5,124.5Q219,116,261.5,64.5Q304,13,335,58.5Q366,104,353.5,155Q341,206,412,228Q483,250,455.5,293Z" fill="url(#gradient)" fill-opacity="0.75"></path>
  </g>
</svg>